# xmcd
#
# Track frame offsets:
#	150
#	8850
#	19343
#	29323
#	37310
#	42225
#	47763
#	52433
#	60888
#	65438
#	70703
#	83061
#	94881
#	100248
#	104351
#	108334
#	114198
#
# Disc length: 1605 seconds
#
# Revision: 1
# Processed by: cddbd v1.5.2PL0 Copyright (c) Steve Scherf et al.
# Submitted via: EZCDAudioConverter 7.0.6.1
#
DISCID=e2064311
DTITLE=Brain Green - Songs Kids Really Love to Sing: 17 Christmas Songs
DYEAR=2011
DGENRE=Christmas Chorus
TTITLE0=It Came Upon a Midnight Clear
TTITLE1=Silent Night
TTITLE2=O Little Town of Bethlehem
TTITLE3=I Saw Three Ships
TTITLE4=Away in a Manger
TTITLE5=What Child Is This
TTITLE6=O Come All Ye Faithful
TTITLE7=O Holy Night
TTITLE8=Joy to the World
TTITLE9=We Wish You a Merry Christmas
TTITLE10=The First Noel
TTITLE11=Rise Up Shepherd and Follow
TTITLE12=Long, Long Ago
TTITLE13=While Shepherds Watched Their Flocks by Night
TTITLE14=Angels We Have Heard on High
TTITLE15=Angels From the Realms of Glory
TTITLE16=Hark! The Herald Angels Sing
EXTD=
EXTT0=
EXTT1=
EXTT2=
EXTT3=
EXTT4=
EXTT5=
EXTT6=
EXTT7=
EXTT8=
EXTT9=
EXTT10=
EXTT11=
EXTT12=
EXTT13=
EXTT14=
EXTT15=
EXTT16=
PLAYORDER=
